<svg xmlns="http://www.w3.org/2000/svg" width="64" height="64" viewBox="0 0 64 64">
  <defs>
    <linearGradient id="g" x1="0" y1="0" x2="1" y2="1">
      <stop offset="0%" stop-color="#22c55e"/>
      <stop offset="100%" stop-color="#16a34a"/>
    </linearGradient>
  </defs>
  <rect width="64" height="64" rx="14" fill="url(#g)"/>
  <g transform="translate(10 14)">
    <path d="M18 0c9.941 0 18 6.268 18 14s-8.059 14-18 14c-1.93 0-3.79-.24-5.53-.69L2 30l3.04-7.11C3.03 20.46 2 17.33 2 14 2 6.268 10.059 0 20 0h-2z" fill="#ffffff" opacity="0.15"/>
    <path d="M22 5c7.18 0 13 4.7 13 10.5S29.18 26 22 26c-1.29 0-2.54-.16-3.72-.47L11 28l1.87-4.36C10.79 21.8 9 18.83 9 15.5 9 9.7 14.82 5 22 5z" fill="#ffffff" opacity="0.3"/>
  </g>
  <text x="32" y="39" text-anchor="middle" font-family="Inter, system-ui, -apple-system, Segoe UI, Roboto, Arial" font-size="22" font-weight="700" fill="#ffffff">Xe</text>
</svg>
